<?xml version='1.0' encoding='utf-8'?>
<svg xmlns="http://www.w3.org/2000/svg" id="drinks-with-friendz-logo" class="dwf-logo" viewBox="0 0 1500.000000 1500.000000" role="img" aria-labelledby="dwf-logo-title dwf-logo-description" preserveAspectRatio="xMidYMid meet">
    <title id="dwf-logo-title">Drinks With Friendz</title>
    <desc id="dwf-logo-description">Drinks With Friendz logo featuring a blue martini glass, green lime, yellow Drinkz lettering, white with lettering, and orange Friendz lettering.</desc>
    <g id="dwf-glass" class="dwf-layer dwf-layer--glass" fill="#29A8E8" data-dwf-layer="glass">
        <metadata>
Created by potrace 1.16, written by Peter Selinger 2001-2019
</metadata>
        <g transform="translate(0.000000,1500.000000) scale(0.100000,-0.100000)" fill="#000000" stroke="none">
            <path d="M6705 12603 c-296 -63 -369 -291 -183 -574 30 -46 306 -408 613 -804 308 -396 683 -881 836 -1077 l277 -357 61 46 c38 29 57 51 52 57 -72 91 -1613 2082 -1653 2136 -198 265 -178 395 67 430 46 6 1344 10 3727 10 3962 0 3751 3 3851 -52 23 -13 52 -39 65 -58 35 -51 28 -144 -16 -231 -48 -94 -104 -165 -754 -959 -1649 -2016 -2456 -3046 -2695 -3439 -55 -91 -63 -110 -63 -154 0 -97 50 -152 252 -276 201 -124 258 -191 258 -304 0 -112 -41 -165 -221 -283 -192 -127 -232 -182 -249 -342 -19 -172 -31 -733 -37 -1717 l-6 -1000 264 -88 c974 -324 1541 -615 1517 -778 -8 -53 -102 -78 -368 -99 -971 -74 -4305 -63 -9025 30 -2082 41 -2219 45 -2250 56 -21 8 -20 63 2 71 9 3 257 1 552 -6 5019 -111 9187 -144 10476 -81 325 16 525 39 525 60 0 15 -89 87 -158 128 -241 143 -793 369 -1362 559 -129 43 -241 82 -247 86 -34 21 2 2661 38 2850 25 135 93 218 280 342 137 91 163 116 180 176 10 32 9 46 -5 84 -22 57 -69 97 -220 188 -130 78 -231 168 -261 232 -10 22 -21 65 -23 96 -4 47 0 65 28 119 178 352 956 1352 2931 3765 211 259 414 508 450 555 70 89 132 195 143 244 15 64 -26 104 -130 126 -34 7 -1225 10 -3764 8 -3692 -3 -3715 -3 -3755 -23 -37 -19 -40 -23 -39 -62 0 -29 12 -60 42 -110 28 -47 1688 -2201 1727 -2242 2 -2 31 18 65 44 l61 47 -34 41 c-36 46 -1595 2058 -1641 2120 l-28 37 3645 0 c2005 0 3652 -3 3661 -6 28 -11 55 25 -679 -874 -1930 -2362 -2622 -3256 -2797 -3614 -39 -80 -39 -82 -36 -177 3 -84 8 -104 36 -162 43 -88 128 -172 255 -254 176 -113 212 -138 212 -148 0 -6 -54 -46 -120 -89 -201 -132 -292 -245 -329 -407 -33 -144 -56 -1033 -56 -2218 0 -694 0 -705 21 -748 11 -23 34 -52 50 -63 16 -12 147 -61 291 -109 396 -133 820 -296 1068 -409 l64 -30 -39 -6 c-22 -3 -206 -11 -410 -18 -479 -17 -3496 -16 -4695 0 -2045 29 -3846 61 -5377 97 -394 9 -604 10 -628 4 -41 -12 -100 -60 -120 -98 -36 -72 -26 -156 27 -217 65 -74 33 -70 718 -84 272 -6 821 -17 1220 -25 1640 -33 3293 -59 4810 -76 1166 -13 3741 -7 4120 10 660 29 899 60 980 128 75 63 96 179 50 277 -100 209 -559 438 -1615 804 l-140 49 -3 249 c-4 343 16 1874 29 2141 5 120 14 235 20 255 15 57 54 95 179 176 122 80 208 159 240 223 35 68 53 156 45 225 -16 148 -105 255 -329 394 -75 47 -149 97 -163 112 l-26 27 42 73 c192 335 1127 1526 2857 3638 438 536 492 602 543 679 85 125 130 263 117 353 -16 109 -87 201 -191 249 -133 63 154 59 -3915 58 -3258 -1 -3724 -2 -3785 -16z" fill="#29A8E8" />
        </g>
    </g>
    <g id="dwf-lime" class="dwf-layer dwf-layer--lime" fill="#9CD842" data-dwf-layer="lime">
        <metadata>
Created by potrace 1.16, written by Peter Selinger 2001-2019
</metadata>
        <g transform="translate(0.000000,1500.000000) scale(0.100000,-0.100000)" fill="#000000" stroke="none">
            <path d="M12215 11955 c-207 -34 -438 -125 -614 -243 -108 -72 -284 -241 -367 -352 -120 -161 -218 -379 -266 -591 -20 -90 -23 -131 -23 -309 0 -178 3 -219 23 -309 66 -293 192 -528 396 -739 95 -98 113 -113 138 -110 24 3 177 176 988 1123 672 784 960 1127 960 1143 0 30 -41 67 -160 147 -161 108 -344 185 -535 227 -122 26 -413 33 -540 13z m465 -110 c227 -37 397 -111 634 -277 5 -3 -402 -486 -905 -1072 l-913 -1066 -54 52 c-182 179 -331 471 -378 743 -24 143 -22 358 6 498 57 292 198 548 413 754 320 305 756 439 1197 368z" fill="#9CD842" />
            <path d="M12150 11720 c-225 -48 -465 -175 -609 -323 l-43 -45 392 -336 c215 -185 397 -336 403 -336 42 1 42 -5 3 517 -38 512 -41 543 -54 542 -4 0 -45 -9 -92 -19z m30 -472 c15 -194 27 -354 26 -355 0 -1 -124 104 -274 232 l-273 234 68 51 c90 66 228 137 333 171 47 15 87 26 89 24 2 -2 16 -163 31 -357z" fill="#9CD842" />
            <path d="M12314 11684 c3 -32 22 -266 42 -519 24 -308 39 -462 47 -467 7 -5 19 -7 28 -6 9 2 168 179 352 395 l336 392 -82 54 c-191 127 -387 192 -611 204 l-118 6 6 -59z m276 -81 c89 -18 193 -55 270 -93 107 -55 120 -23 -135 -321 -124 -145 -229 -265 -233 -267 -4 -1 -18 136 -30 305 -13 170 -26 330 -29 356 l-6 48 44 -6 c24 -4 78 -13 119 -22z" fill="#9CD842" />
            <path d="M11402 11233 c-126 -186 -200 -405 -217 -645 -6 -80 -5 -98 6 -98 29 0 1032 80 1034 83 2 1 5 11 9 23 5 18 -49 69 -383 355 -215 183 -394 335 -400 337 -5 2 -27 -23 -49 -55z m341 -335 c225 -194 267 -233 247 -235 -149 -15 -684 -52 -688 -48 -9 9 19 167 45 250 23 73 110 265 120 265 3 0 127 -105 276 -232z" fill="#9CD842" />
            <path d="M11667 10460 c-263 -21 -481 -41 -484 -43 -8 -9 25 -157 53 -244 32 -94 92 -217 146 -296 46 -68 166 -207 178 -207 6 0 600 686 668 772 10 13 11 22 2 37 -13 26 26 27 -563 -19z m336 -112 c-11 -13 -115 -134 -232 -270 -116 -137 -213 -248 -215 -248 -10 0 -120 168 -154 235 -37 75 -97 243 -89 251 5 5 576 51 651 53 l59 1 -20 -22z" fill="#9CD842" />
        </g>
    </g>
    <g id="dwf-drinkz" class="dwf-layer dwf-layer--drinkz" fill="#FFF27A" data-dwf-layer="drinkz">
        <metadata>
Created by potrace 1.16, written by Peter Selinger 2001-2019
</metadata>
        <g transform="translate(0.000000,1500.000000) scale(0.100000,-0.100000)" fill="#000000" stroke="none">
            <path d="M6320 9269 c-214 -108 -323 -364 -307 -728 15 -351 180 -915 403 -1380 64 -134 72 -156 60 -170 -7 -9 -23 -47 -34 -86 -48 -160 -162 -342 -208 -333 -32 6 -73 108 -115 278 -127 528 -143 575 -201 606 -43 24 -141 24 -186 0 -55 -28 -110 -94 -152 -180 -77 -157 -115 -351 -128 -646 l-7 -165 -57 170 c-31 94 -69 217 -83 275 -34 138 -43 158 -76 175 -40 21 -81 18 -120 -8 -44 -29 -69 -80 -69 -138 0 -128 113 -526 196 -691 30 -59 30 -77 0 -164 -47 -138 -100 -214 -174 -246 -54 -24 -93 -14 -145 40 -93 96 -202 447 -226 728 -7 85 -11 100 -32 117 -53 43 -176 -3 -224 -83 -17 -30 -20 -50 -18 -150 1 -70 9 -147 21 -197 18 -79 18 -83 1 -88 -10 -3 -31 -29 -47 -58 -75 -132 -156 -217 -208 -217 -36 0 -53 32 -79 148 -43 199 -85 262 -171 262 -25 0 -62 -9 -83 -20 -74 -37 -104 -94 -133 -250 -14 -71 -18 -512 -6 -615 5 -46 -17 11 -98 250 -113 337 -117 344 -189 345 -71 0 -129 -56 -141 -138 -28 -188 296 -939 449 -1040 74 -49 164 -30 221 46 29 38 30 111 7 247 -37 211 -61 435 -68 628 -3 103 -3 187 0 187 3 0 23 -54 43 -120 40 -129 70 -176 128 -204 126 -60 330 48 437 232 l36 62 23 -59 c35 -94 104 -204 160 -254 92 -83 230 -112 348 -73 63 21 156 80 207 132 44 45 133 177 141 210 l6 23 40 -30 c66 -47 147 -36 197 28 21 26 22 32 15 242 -5 170 -3 251 10 381 21 202 50 377 71 427 15 35 17 37 30 20 7 -10 27 -80 45 -155 71 -307 118 -433 192 -517 127 -144 315 -67 495 202 33 49 73 122 88 162 l29 72 25 -33 c71 -93 143 -132 200 -108 112 46 171 220 191 560 16 272 28 381 54 483 37 144 92 239 159 274 30 15 31 15 55 -13 34 -39 27 -100 -28 -239 -68 -174 -82 -236 -77 -340 4 -101 22 -147 83 -215 58 -64 109 -83 212 -78 184 9 313 110 424 333 19 39 43 92 53 118 l18 48 46 -8 c95 -16 250 -7 346 22 167 49 371 175 518 321 175 174 280 404 268 591 -3 55 -115 124 -176 109 -33 -8 -42 -28 -64 -143 -29 -151 -78 -280 -128 -342 l-20 -24 -7 42 c-8 54 -45 127 -82 165 -61 62 -208 138 -416 216 -123 46 -149 70 -159 149 -16 113 -70 168 -156 158 -57 -6 -110 -48 -136 -106 l-20 -46 22 -295 c28 -378 28 -422 2 -558 -49 -257 -143 -437 -255 -491 -54 -27 -77 -26 -104 2 -59 63 -46 193 39 385 87 197 98 338 34 467 -28 59 -81 117 -128 142 -21 12 -54 17 -97 17 -185 -1 -360 -205 -439 -514 -43 -170 -62 -336 -68 -604 l-6 -240 -45 90 c-25 49 -71 151 -102 227 l-57 137 23 78 c64 222 139 648 155 888 18 253 -6 510 -61 657 -33 88 -95 174 -156 214 -45 30 -65 36 -121 40 -62 4 -74 2 -133 -28z m128 -334 c99 -70 144 -346 108 -665 -17 -148 -62 -460 -73 -494 -7 -26 -13 -15 -58 119 -97 292 -159 679 -136 850 14 96 43 160 85 186 38 23 45 23 74 4z m1771 -626 c244 -134 364 -280 322 -392 -14 -35 -67 -85 -123 -113 -63 -32 -205 -46 -229 -22 -11 11 -19 74 -32 249 -10 129 -20 253 -24 277 -3 23 -2 42 3 42 4 0 41 -19 83 -41z" fill="#FFF27A" />
            <path d="M4371 7380 c-71 -39 -78 -46 -112 -105 -37 -65 -38 -122 -3 -193 48 -97 134 -126 236 -80 157 73 201 204 112 337 -53 79 -137 94 -233 41z" fill="#FFF27A" />
            <path d="M1755 6514 c-194 -34 -457 -145 -655 -275 -127 -83 -288 -246 -354 -357 -27 -45 -65 -128 -85 -184 -33 -94 -36 -112 -36 -213 0 -174 38 -294 109 -340 40 -27 96 -16 122 22 24 36 31 71 44 229 15 180 70 302 199 437 103 109 212 187 356 258 176 86 248 104 420 104 180 0 296 -30 443 -116 88 -52 248 -218 307 -319 145 -248 211 -534 185 -806 -11 -127 -38 -261 -71 -364 -30 -93 -112 -255 -164 -325 -126 -169 -347 -345 -432 -345 -45 0 -79 45 -172 230 -245 485 -460 1230 -450 1555 2 68 2 70 -27 84 -16 8 -52 15 -80 15 -64 1 -111 -29 -161 -103 l-36 -53 6 -162 c9 -248 77 -541 219 -940 140 -395 382 -900 445 -929 56 -25 290 31 447 109 407 202 736 685 795 1169 37 302 -26 640 -174 936 -173 344 -385 548 -670 646 -153 52 -362 67 -530 37z" fill="#FFF27A" />
        </g>
    </g>
    <g id="dwf-with" class="dwf-layer dwf-layer--with" fill="#FFFFFF" data-dwf-layer="with">
        <metadata>
Created by potrace 1.16, written by Peter Selinger 2001-2019
</metadata>
        <g transform="translate(0.000000,1500.000000) scale(0.100000,-0.100000)" fill="#000000" stroke="none">
            <path d="M8205 6141 c-49 -22 -73 -48 -120 -126 -57 -96 -118 -315 -132 -472 -4 -56 -10 -76 -22 -80 -9 -3 -32 -21 -51 -39 -19 -18 -51 -40 -72 -48 -34 -14 -38 -14 -60 3 -21 17 -23 28 -23 97 l0 79 59 23 c32 13 81 29 107 35 41 10 49 15 49 35 0 12 -7 25 -15 28 -14 6 -77 -6 -121 -23 -11 -4 13 27 52 69 81 88 130 179 140 260 6 52 4 58 -19 82 -55 55 -144 23 -209 -76 -57 -87 -127 -290 -128 -371 0 -21 -8 -31 -35 -44 -24 -12 -35 -23 -35 -39 0 -24 21 -37 45 -28 11 5 15 -1 15 -23 0 -35 -47 -84 -101 -107 -32 -13 -38 -13 -57 0 -36 25 -25 112 34 267 16 42 17 49 4 57 -42 26 -98 -14 -115 -83 -8 -32 -9 -32 -55 -41 l-36 -6 4 68 c4 62 2 71 -22 99 -15 17 -40 34 -56 38 -38 8 -96 -11 -115 -38 -34 -48 -4 -158 51 -188 31 -16 30 -25 -4 -80 -62 -97 -143 -139 -179 -91 -23 29 -15 100 23 193 41 101 40 122 -8 117 -30 -3 -35 -8 -56 -63 -45 -116 -80 -183 -117 -224 -114 -126 -157 62 -50 218 39 56 42 72 20 91 -37 30 -78 -9 -140 -130 -33 -65 -45 -172 -25 -220 22 -53 64 -80 126 -80 51 0 58 3 104 46 49 46 49 46 55 21 19 -73 112 -94 197 -44 54 32 98 79 139 153 29 51 33 54 70 54 l38 0 -6 -63 c-10 -106 31 -157 125 -157 55 0 101 17 139 52 l22 21 34 -37 c31 -32 40 -36 86 -36 54 0 117 25 159 63 l22 20 0 -24 c0 -37 22 -62 51 -57 18 2 31 18 55 65 17 34 50 87 74 118 43 56 106 112 115 103 3 -2 -9 -41 -25 -87 -49 -135 -36 -201 40 -201 48 0 130 30 193 70 42 26 47 34 47 65 0 21 -6 38 -14 41 -8 3 -45 -15 -83 -40 -37 -24 -77 -46 -88 -48 -32 -5 -24 57 24 171 46 111 48 123 25 145 -52 52 -211 -43 -287 -172 -11 -18 -21 -31 -23 -29 -2 2 0 28 6 58 9 49 18 61 101 144 145 146 219 269 219 366 0 31 -7 47 -29 70 -35 35 -76 38 -136 10z m63 -114 c6 -52 -92 -221 -172 -296 l-25 -23 15 62 c17 76 59 182 90 232 40 63 86 76 92 25z m-358 -74 c0 -22 -12 -60 -28 -90 -28 -53 -130 -178 -139 -170 -8 9 29 131 57 187 27 53 79 110 101 110 5 0 9 -17 9 -37z m-682 -255 c15 -15 15 -48 1 -85 l-11 -28 -24 28 c-28 33 -30 54 -7 79 19 21 25 22 41 6z" fill="#FFFFFF" />
            <path d="M7486 5898 c-36 -50 -9 -98 53 -98 45 0 71 24 71 66 0 41 -16 54 -66 54 -33 0 -47 -5 -58 -22z" fill="#FFFFFF" />
        </g>
    </g>
    <g id="dwf-friendz" class="dwf-layer dwf-layer--friendz" fill="#F89A22" data-dwf-layer="friendz">
        <metadata>
Created by potrace 1.16, written by Peter Selinger 2001-2019
</metadata>
        <g transform="translate(0.000000,1500.000000) scale(0.100000,-0.100000)" fill="#000000" stroke="none">
            <path d="M4630 4790 c-177 -8 -287 -24 -408 -61 -382 -117 -602 -443 -492 -731 43 -112 101 -156 196 -145 67 7 71 17 35 80 -17 30 -38 74 -47 98 -21 59 -21 163 0 227 38 114 160 233 296 288 60 24 209 64 242 64 14 0 5 -45 -61 -302 -77 -300 -78 -303 -107 -312 -87 -25 -119 -42 -128 -68 -13 -38 12 -64 71 -73 l45 -7 -7 -36 c-13 -72 -68 -228 -103 -295 -42 -82 -98 -132 -170 -153 -64 -19 -108 -13 -192 27 -70 33 -88 31 -125 -12 -39 -47 -35 -98 11 -139 111 -97 305 -113 447 -38 117 63 189 182 277 461 28 89 55 169 59 177 6 12 39 17 146 23 76 4 144 12 152 18 16 14 17 101 1 117 -8 8 -54 12 -141 12 -118 0 -128 1 -123 18 12 38 67 289 95 437 17 87 33 160 35 163 10 10 264 2 438 -13 201 -18 223 -15 234 29 11 47 0 79 -33 99 -73 42 -328 61 -643 47z" fill="#F89A22" />
            <path d="M8092 4698 c-89 -43 -173 -172 -226 -348 -26 -89 -66 -277 -66 -314 0 -21 -4 -22 -77 -22 -68 0 -85 -3 -131 -29 -113 -61 -213 -212 -234 -352 -5 -37 -13 -75 -17 -83 -13 -26 -115 -90 -154 -97 -37 -6 -37 -5 -37 29 0 19 22 104 49 189 70 221 78 262 57 293 -40 62 -117 69 -201 20 -77 -45 -188 -167 -265 -292 -18 -29 -34 -52 -36 -50 -5 5 32 165 55 238 11 36 21 73 21 82 0 48 -85 66 -127 26 -28 -26 -86 -203 -107 -326 -17 -99 -35 -123 -135 -176 -132 -69 -256 -73 -319 -10 -20 20 -31 39 -26 43 5 4 39 16 77 26 102 26 196 76 244 127 82 90 85 217 7 290 -41 38 -75 48 -158 48 -91 0 -156 -30 -222 -103 -83 -92 -146 -266 -128 -354 5 -26 1 -34 -34 -62 -45 -35 -101 -61 -132 -61 -12 0 -32 11 -45 25 -21 20 -25 34 -25 82 0 71 39 220 85 328 19 45 35 89 35 99 0 49 -103 64 -145 22 -25 -25 -65 -99 -84 -156 -10 -30 -21 -39 -84 -67 -93 -42 -118 -47 -141 -30 -18 13 -18 15 2 78 35 105 37 140 12 172 -42 53 -132 30 -196 -50 -53 -67 -98 -136 -141 -218 -23 -44 -43 -75 -43 -69 0 7 14 72 31 145 34 152 37 182 19 204 -21 26 -87 19 -116 -12 -44 -48 -87 -234 -100 -436 -12 -181 12 -247 90 -247 52 0 80 32 125 145 53 136 100 237 149 320 47 79 49 78 26 -8 -31 -120 13 -177 136 -177 48 0 79 7 118 25 30 14 55 25 55 25 1 0 1 -42 -1 -92 -3 -83 -1 -98 21 -138 15 -29 40 -55 71 -74 87 -54 224 -36 337 45 l30 21 27 -25 c53 -49 111 -70 204 -75 105 -5 190 17 288 76 l65 40 12 -42 c14 -47 35 -66 74 -66 48 0 60 11 100 94 21 44 68 122 103 171 79 109 189 232 194 217 2 -6 -14 -66 -35 -134 -31 -100 -38 -138 -38 -206 0 -82 1 -84 33 -113 26 -24 41 -29 81 -29 63 0 163 31 224 70 26 16 50 30 53 30 2 0 19 -16 37 -37 58 -66 147 -89 240 -61 39 12 110 72 132 111 9 17 14 14 42 -27 46 -64 100 -90 189 -89 49 1 86 7 119 22 l48 21 45 -21 c101 -50 277 -32 421 43 111 56 151 91 151 132 0 18 -6 40 -13 50 -13 18 -17 17 -80 -18 -139 -78 -292 -119 -361 -96 l-36 12 25 32 c14 18 25 41 25 52 0 12 58 71 151 154 83 74 155 142 159 150 4 8 11 35 15 60 5 37 3 50 -13 70 l-20 25 -222 -1 c-177 -1 -224 -4 -231 -15 -15 -23 -10 -76 9 -99 18 -22 19 -22 167 -12 83 5 151 9 153 7 2 -2 -68 -64 -155 -138 -185 -158 -207 -180 -227 -228 -11 -27 -26 -41 -56 -53 -99 -39 -148 0 -164 135 -5 45 -3 48 110 215 207 304 293 481 315 651 19 145 -4 218 -82 258 -40 21 -126 18 -177 -7z m99 -174 c52 -63 -40 -331 -195 -569 -75 -115 -72 -129 -29 134 35 218 84 370 138 424 31 30 66 35 86 11z m-1836 -678 c40 -61 -38 -140 -205 -206 l-50 -20 0 25 c0 58 62 162 119 201 49 33 114 33 136 0z m1420 -33 c-12 -106 -46 -255 -66 -295 -21 -42 -70 -78 -106 -78 -12 0 -35 11 -50 24 -26 23 -28 29 -28 103 1 87 21 145 75 213 33 41 118 90 158 90 24 0 24 -1 17 -57z" fill="#F89A22" />
            <path d="M5783 4350 c-40 -24 -53 -48 -53 -100 0 -74 75 -117 161 -91 75 23 107 133 54 186 -31 32 -114 35 -162 5z" fill="#F89A22" />
        </g>
    </g>
</svg>